<svg id="Vrstva_1" data-name="Vrstva 1" xmlns="http://www.w3.org/2000/svg" viewBox="0 0 285 185"><defs><style>.cls-1{fill:#274249;}.cls-2{fill:#f9a03b;fill-rule:evenodd;}.cls-3{fill:none;}</style></defs><g id="Logo"><path id="upgates" class="cls-1" d="M58.2,197.7c3.8,0,8.2-1.4,10.2-4.7a23.4,23.4,0,0,0,.3,3.8H79.9c-.2-2.2-.4-4.3-.4-6.5V158.8H67.9v21.7a6.11,6.11,0,0,1-6.4,6.5c-4.1,0-6.1-2.9-6.1-6.6V158.8H43.7v24C43.7,191,48.9,197.7,58.2,197.7Zm39.4,13.8V194c1.8,2.1,5.4,3.8,10.3,3.8,10.6,0,18.2-8.3,18.2-20,0-11.4-6.7-19.8-17.7-19.8-5.4,0-9.6,2.4-11.2,4.8v-3.9H85.9v52.6Zm8.4-24.2c-4.5,0-8.6-3.2-8.6-9.5s4.1-9.4,8.6-9.4,8.7,3.1,8.7,9.4S110.6,187.3,106,187.3Zm41.6,25.3c14.2,0,20.4-9.5,20.4-20.4V158.9H156.9V163c-1.1-2-4.4-4.7-10.6-4.7-10.4,0-17.7,8.6-17.7,18.6,0,10.6,7.6,18.5,17.7,18.5,5.5,0,8.8-2.2,10.2-4.3v1.8c0,6.9-3.6,9.7-9.4,9.7a8,8,0,0,1-8.2-6.4l-10.3,2.9C129.7,205.9,136.6,212.6,147.6,212.6Zm.8-27.4c-4.7,0-8.2-3.2-8.2-8.4a8.05,8.05,0,0,1,7.7-8.4h.5c4.4,0,8.1,3.2,8.1,8.4s-3.3,8.4-8.1,8.4ZM186,198c5.1,0,8.7-2.1,10.7-5.4a20.87,20.87,0,0,0,.4,4.3h10.5a39.15,39.15,0,0,1-.5-5.9V172.4c0-7.8-4.5-14.7-16.8-14.7-11.2,0-16.2,7.2-16.7,12.6l10.1,2.1a6.16,6.16,0,0,1,6.5-5.6c3.7,0,5.6,1.9,5.6,4.1,0,1.3-.7,2.3-2.8,2.6l-9,1.4c-6.3.9-11.3,4.7-11.3,11.5.1,6.1,4.9,11.6,13.3,11.6Zm2.8-8.5c-3.2,0-4.5-1.9-4.5-3.9,0-2.7,1.8-3.8,4.3-4.2l7.2-1.1V182C195.8,187.9,192.2,189.5,188.8,189.5Zm40.6,8.1c3.7,0,5.6-.8,6.1-1.1v-9.7a15.46,15.46,0,0,1-3.1.4c-2.5,0-4.2-.8-4.2-4V169h7.4V158.8h-7.4V147.7H217.8v4.9c0,3.5-1.9,6.2-5.9,6.2H210V169h6.7v16.3C216.7,192.9,221.5,197.6,229.4,197.6Zm28.8.4c9.7,0,15.7-5.5,17.5-12.1l-9.7-2.8c-1.1,3-3.4,5-7.7,5-4.5,0-8.4-3.1-8.7-7.4h26.5a21.74,21.74,0,0,0,.2-3.6c0-12.3-7.3-19.5-19.1-19.5-9.9,0-19,7.8-19,20.1.1,12.8,9.5,20.3,20,20.3Zm7-24.7H250a7.25,7.25,0,0,1,7.6-6.4c5.4,0,7.4,3.5,7.6,6.4ZM294.6,198c10.2,0,15.2-6.4,15.2-12.9,0-5.6-3.8-10.3-11.7-11.9l-5.1-1c-1.7-.3-3-1.2-3-2.8,0-2,1.9-3.3,4.1-3.3,3.5,0,5.1,2.1,5.4,4.7l9.7-1.8c-.4-4.4-4.2-11.3-15.2-11.3-8.5,0-14.6,5.7-14.6,12.6,0,5.4,3.2,10,11.3,11.7l4.4,1c2.8.6,3.8,1.8,3.8,3.1,0,1.7-1.5,3.3-4.4,3.3-4,0-5.8-2.5-6-5.1l-9.9,1.8c.2,4.2,4,11.9,16,11.9Z" transform="translate(-43 -28)"/><path id="TM" class="cls-1" d="M317.9,164.7v-4.8h1.9v-1.3h-5.1v1.3h1.9v4.8Zm3.8,0v-4l1.6,4h1.1l1.6-4v4h1.3v-6.1h-1.8l-1.6,4.1-1.7-4.1h-1.8v6.1Z" transform="translate(-43 -28)"/><g id="Symbol"><path id="Path" class="cls-2" d="M166.1,82h15.3V93.5a26.8,26.8,0,0,1-53.6,0V43.7h15.3V93.5a11.5,11.5,0,0,0,23,0Z" transform="translate(-43 -28)"/><path id="Path-2" class="cls-2" d="M181.4,82V66.7h11.5a11.5,11.5,0,1,0,.2-23h-50V28.4h50.2a26.8,26.8,0,0,1,.1,53.6Z" transform="translate(-43 -28)"/></g></g><rect id="_Řez_" data-name=" Řez " class="cls-3" x="0.4" y="0.2" width="284.1" height="184.6"/><rect id="_Řez_2" data-name="&lt;Řez&gt;" class="cls-3" width="285" height="185"/></svg>